<svg width="1920" height="1080" viewBox="0 0 1920 1080" fill="none" xmlns="http://www.w3.org/2000/svg">
<rect width="1920" height="1080" fill="white"/>
<path fill-rule="evenodd" clip-rule="evenodd" d="M798.525 -150.101C871.372 -310.448 1027.24 -425.98 1195.07 -479.367C1360.38 -531.95 1534.21 -484.908 1700.98 -437.168C1870.09 -388.757 2058.76 -347.416 2159.56 -203.262C2259.18 -60.7967 2215.86 128.309 2217.95 302.137C2220.02 473.912 2254.34 652.165 2171.67 802.753C2084.37 961.79 1928.87 1072.52 1759.43 1137.38C1586.27 1203.65 1396.26 1217.73 1217.69 1167.87C1036.58 1117.31 842.045 1029.24 762.287 858.958C685.395 694.798 819.809 513.477 826.315 332.318C832.24 167.311 730.23 0.226051 798.525 -150.101Z" fill="#E8EEF5" fill-opacity="0.9"/>
<path fill-rule="evenodd" clip-rule="evenodd" d="M911.849 -158.333C999.909 -310.856 1166.25 -410.722 1338.47 -447.575C1508.09 -483.873 1676.55 -420.189 1837.9 -356.494C2001.51 -291.906 2185.28 -232.456 2271.62 -79.2033C2356.95 72.2551 2295.48 256.265 2280.7 429.477C2266.1 600.642 2282.97 781.384 2186.08 923.241C2083.75 1073.06 1918.25 1168.19 1743.32 1216.29C1564.55 1265.45 1374.07 1261.04 1201.17 1194.09C1025.83 1126.19 840.751 1019.66 777.889 842.45C717.285 671.605 868.656 504.179 892.706 324.506C914.612 160.852 829.292 -15.3408 911.849 -158.333Z" fill="#829BB8" fill-opacity="0.94"/>
</svg>
