<svg width="903" height="481" viewBox="0 0 903 481" fill="none" xmlns="http://www.w3.org/2000/svg">
<g clip-path="url(#clip0_42_121)">
<path opacity="0.1" d="M451.387 481C700.682 481 902.775 417.95 902.775 340.174C902.775 262.398 700.682 199.348 451.387 199.348C202.093 199.348 0 262.398 0 340.174C0 417.95 202.093 481 451.387 481Z" fill="white"/>
<g opacity="0.8">
<path d="M328.04 28.6727C335.692 39.4037 341.563 70.6555 343.199 80.0728L356.878 79.7937C356.17 71.7032 340.257 38.7949 335.833 29.7655C333.372 29.3795 330.745 29.0026 328.04 28.6727Z" fill="#3C4765"/>
<path d="M157.322 21.6907L157.161 30.2255L163.22 30.3399L163.381 21.8051L157.322 21.6907Z" fill="#DCE0ED"/>
<path opacity="0.1" d="M157.322 21.6907L157.27 24.4696C157.696 24.6 158.138 24.6682 158.583 24.6722L163.326 24.7214L163.381 21.8051L157.322 21.6907Z" fill="black"/>
<path d="M166.35 0.109238L160.629 0.00120009C159.263 -0.024341 157.92 0.358313 156.773 1.10022C155.625 1.84212 154.725 2.90952 154.188 4.16583C152.435 8.25813 150.893 14.7891 154.496 21.3996C154.899 22.1381 155.491 22.7559 156.212 23.1893C156.933 23.6227 157.757 23.8559 158.598 23.865L165.9 23.9403L166.35 0.109238Z" fill="#898890"/>
<path d="M172.251 12.1405C172.375 5.55969 169.733 0.173128 166.35 0.109228C162.966 0.0453289 160.123 5.32829 159.999 11.9091C159.874 18.4898 162.516 23.8764 165.9 23.9403C169.283 24.0042 172.127 18.7212 172.251 12.1405Z" fill="#F0F0F4"/>
<path d="M211.142 22.8082L211.001 30.2806L217.06 30.3951L217.201 22.9226L211.142 22.8082Z" fill="#DCE0ED"/>
<path opacity="0.1" d="M211.142 22.8081L211.097 25.1831C211.523 25.3135 211.965 25.3817 212.411 25.3857L217.153 25.4349L217.201 22.9225L211.142 22.8081Z" fill="black"/>
<path d="M220.17 1.22667L214.449 1.11863C213.083 1.09309 211.74 1.47576 210.593 2.21766C209.445 2.95956 208.545 4.02696 208.008 5.28327C206.255 9.37557 204.713 15.9065 208.317 22.517C208.719 23.2555 209.311 23.8734 210.032 24.3067C210.753 24.7401 211.577 24.9733 212.418 24.9824L219.72 25.0577L220.17 1.22667Z" fill="#898890"/>
<path d="M226.07 13.258C226.194 6.67724 223.552 1.29069 220.169 1.2268C216.785 1.16292 213.942 6.44587 213.818 13.0266C213.693 19.6074 216.335 24.9939 219.719 25.0578C223.102 25.1217 225.946 19.8387 226.07 13.258Z" fill="#F0F0F4"/>
<path d="M218.559 5.55334C218.559 5.55334 220.812 5.95758 219.58 8.91825C218.93 10.3561 218.446 11.8639 218.139 13.4121C218.139 13.4121 215.857 14.5445 216.021 10.6595C216.185 6.7744 218.559 5.55334 218.559 5.55334Z" fill="#DCE0ED"/>
<path d="M480.697 180.836C481.106 159.198 465.433 141.354 445.69 140.981C425.948 140.608 409.613 157.848 409.204 179.486C408.795 201.124 424.468 218.968 444.21 219.341C463.953 219.714 480.288 202.475 480.697 180.836Z" fill="#636780"/>
<path opacity="0.1" d="M432.249 143.172C450.932 144.784 465.428 162.088 465.035 182.908C464.718 199.69 454.82 213.823 441.183 219.149C422.5 217.538 408.004 200.234 408.398 179.414C408.715 162.632 418.613 148.498 432.249 143.172Z" fill="black"/>
<path d="M195.802 89.7945C196.197 68.8996 183.527 51.7156 167.502 51.413C151.478 51.1103 138.168 67.8036 137.773 88.6985C137.378 109.593 150.049 126.777 166.073 127.08C182.097 127.383 195.408 110.689 195.802 89.7945Z" fill="#4A5376"/>
<path opacity="0.1" d="M175.582 53.1509C187.528 57.9898 196.04 72.6612 195.716 89.8448C195.369 108.208 185.046 123.324 171.673 126.512C159.727 121.674 151.214 107.002 151.539 89.8185C151.886 71.4554 162.209 56.3395 175.582 53.1509Z" fill="black"/>
<path d="M275.93 83.2266L275.651 69.4833C275.651 69.4833 278.456 63.6101 281.159 63.1224C283.862 62.6347 290.062 62.415 290.062 62.415C290.062 62.415 294.536 82.2312 291.193 88.0943C287.85 93.9573 275.93 83.2266 275.93 83.2266Z" fill="#65617D"/>
<path opacity="0.1" d="M275.93 83.2266L275.651 69.4833C275.651 69.4833 278.456 63.6101 281.159 63.1224C283.862 62.6347 290.062 62.415 290.062 62.415C290.062 62.415 294.536 82.2312 291.193 88.0943C287.85 93.9573 275.93 83.2266 275.93 83.2266Z" fill="black"/>
<path d="M325.64 82.684C325.64 82.684 327.669 63.673 317.209 63.1327C315.863 63.0632 314.517 63.0054 313.178 62.8502C305.938 62.0109 286.186 60.111 288.47 64.6747C288.47 64.6747 292.87 81.3243 289.559 85.4371L325.64 82.684Z" fill="#65617D"/>
<path d="M176.669 115.192L162.625 115.331C162.625 115.331 160.689 89.4346 159.92 87.3997C159.15 85.3649 158.929 75.6633 161.581 74.2991C164.234 72.935 173.051 71.3843 173.051 71.3843L179.235 86.2493L179.489 99.588L176.669 115.192Z" fill="#65617D"/>
<path opacity="0.1" d="M176.669 115.192L162.625 115.331C162.625 115.331 160.689 89.4346 159.92 87.3997C159.15 85.3649 158.929 75.6633 161.581 74.2991C164.234 72.935 173.051 71.3843 173.051 71.3843L179.235 86.2493L179.489 99.588L176.669 115.192Z" fill="#63657F"/>
<path d="M211.408 72.9167L211.525 70.039C211.534 69.8121 211.497 69.5857 211.415 69.3738C211.333 69.162 211.209 68.9691 211.05 68.8072C210.891 68.6452 210.7 68.5176 210.489 68.4323C210.279 68.347 210.053 68.3057 209.826 68.311C202.864 68.4732 177.527 69.2076 173.051 71.3841C173.051 71.3841 177.217 107.525 171.703 116.007L172.975 144.922L235.064 141.448L211.408 72.9167Z" fill="#6B6D89"/>
<path opacity="0.1" d="M217.115 27.4828C215.397 27.2807 213.353 27.0562 211.066 26.8352L211.001 30.2806L217.06 30.395L217.115 27.4828Z" fill="black"/>
<path opacity="0.1" d="M157.169 29.7893L157.161 30.2255L163.22 30.3399L163.269 27.7185C161.158 28.152 159.108 28.8477 157.169 29.7893Z" fill="black"/>
<path d="M125.152 115.128L134.306 115.434L153.875 81.4101L157.142 75.7301L154.993 61.1439L153.065 64.631L125.152 115.128Z" fill="#E6EBF1"/>
<path d="M208.753 74.4139L212.415 80.1401L223.972 65.1171L229.262 58.2345L226.243 54.0043L223.818 56.835L208.753 74.4139Z" fill="#DCE0ED"/>
<path opacity="0.1" d="M223.817 56.8351C223.796 57.1256 223.774 57.4242 223.748 57.7268L223.972 65.1173L229.262 58.235L226.243 54.004L223.817 56.8351Z" fill="black"/>
<path opacity="0.1" d="M153.065 64.631L153.875 81.4101L157.142 75.7301L154.993 61.1439L153.065 64.631Z" fill="black"/>
<path d="M234.335 67.7601C234.335 67.7601 239.493 34.0764 223.131 28.7165C222.921 28.6491 222.706 28.6005 222.487 28.5712C218.708 28.0425 183.477 23.3048 165.052 27.7965C165.052 27.7965 152.495 29.4449 152.503 36.1794L156.469 118.548L165.49 118.718L163.556 64.2683C163.556 64.2683 159.695 40.4905 166.861 39.0096C174.027 37.5287 206.526 35.4488 217.91 38.8963C217.91 38.8963 226.293 37.169 224.557 57.7433L224.887 68.7938L234.335 67.7601Z" fill="#E6EBF1"/>
<path d="M206.679 77.2721C206.621 76.3795 206.793 75.4869 207.18 74.6803C207.567 73.8737 208.155 73.1804 208.887 72.6671C211.448 70.7961 219.302 66.8029 219.302 66.8029L221.822 67.0525L229.041 85.9777L227.783 125.855L213.832 142.461L206.679 77.2721Z" fill="#65617D"/>
<path opacity="0.1" d="M206.679 77.2721C206.621 76.3795 206.793 75.4869 207.18 74.6803C207.567 73.8737 208.155 73.1804 208.887 72.6671C211.448 70.7961 219.302 66.8029 219.302 66.8029L221.822 67.0525L229.041 85.9777L227.783 125.855L213.832 142.461L206.679 77.2721Z" fill="black"/>
<path d="M260.284 120.105L260.787 79.1695C260.787 79.1695 262.299 63.305 252.812 62.8565C252.812 62.8565 230.422 62.5967 220.639 65.5705C220.331 65.6636 220.046 65.8242 219.807 66.0408C219.568 66.2574 219.38 66.5245 219.257 66.8227C219.134 67.121 219.079 67.4428 219.096 67.765C219.113 68.0871 219.201 68.4015 219.355 68.6852C221.228 72.0926 224.325 81.076 225.468 103.992L225.005 128.53L260.284 120.105Z" fill="#65617D"/>
<path d="M212.565 145.366L253.314 145.186L253.355 145.187L273.381 145.101L271.564 118.297L260.449 118.492L224.957 125.7L213.832 142.461L212.565 145.366Z" fill="#65617D"/>
<path opacity="0.1" d="M212.565 145.366L253.314 145.186L253.355 145.187L273.381 145.101L271.564 118.297L260.449 118.492L224.957 125.7L213.832 142.461L212.565 145.366Z" fill="black"/>
<path d="M212.565 145.366L253.314 145.186L254.323 127.265L224.957 125.7L213.832 142.461L212.565 145.366Z" fill="#65617D"/>
<path opacity="0.1" d="M253.354 145.187L273.381 145.101L271.564 118.298C271.564 118.298 265.115 128.176 254.323 127.265L253.354 145.187Z" fill="white"/>
<path d="M109.276 164.124C109.939 171.813 115.415 170.705 115.415 170.705L116.435 170.631L126.542 169.905L126.363 157.981C122.943 157.72 119.503 157.862 116.116 158.402C112.317 159.114 108.981 160.708 109.276 164.124Z" fill="#DCE0ED"/>
<path opacity="0.1" d="M109.276 164.124C109.939 171.813 115.415 170.705 115.415 170.705L116.435 170.631C117.561 168.931 118.158 166.936 118.151 164.897C118.28 162.558 117.557 160.25 116.116 158.402C112.317 159.114 108.981 160.708 109.276 164.124Z" fill="black"/>
<path d="M250.101 88.7325C249.866 101.188 257.15 111.426 266.37 111.6C275.591 111.774 283.256 101.818 283.492 89.3631C283.727 76.908 276.443 66.6699 267.222 66.4958C258.002 66.3216 250.336 76.2774 250.101 88.7325ZM256.401 90.333C256.572 81.2984 262.407 74.082 269.434 74.2147C276.46 74.3474 282.019 81.779 281.848 90.8136C281.677 99.8482 275.843 107.065 268.816 106.932C261.789 106.799 256.231 99.3676 256.401 90.333V90.333Z" fill="#636780"/>
<path d="M265.857 95.9663L257.903 103.493L255.206 96.5733L266.64 90.1898L265.857 95.9663Z" fill="#636780"/>
<path d="M255.78 19.793L248.966 20.4923L246.387 23.4413L249.886 40.7205L257.488 68.5963L262.459 87.7296L265.992 99.3579L268.092 114.699L270.284 125.259L277.318 132.564L292.221 115.632L294.719 109.942L300.677 98.3401L285.99 91.1292L269.766 89.3885L262.489 69.6474L256.704 46.826L255.78 19.793Z" fill="#1B529D"/>
<path d="M391.765 104.405L399.243 179.164L287.447 172.338L301.064 135.96L322.871 122.364L273.577 122.242L273.695 101.771L293.702 97.8392L333.886 95.3659L364.07 94.5887L392.705 104.558" fill="#65617D"/>
<path opacity="0.1" d="M391.765 104.405L399.243 179.164L287.447 172.338L301.064 135.96L322.871 122.364L273.577 122.242L273.695 101.771L293.702 97.8392L333.886 95.3659L364.07 94.5887L392.705 104.558" fill="#6A7FA1"/>
<path d="M237.504 175.855C237.154 194.391 242.993 211.38 260.116 209.856C281.678 209.801 283.647 195.269 283.997 176.733C284.347 158.198 274.2 144.207 261.361 143.965C248.522 143.722 237.854 157.32 237.504 175.855Z" fill="#636780"/>
<path opacity="0.1" d="M237.369 175.884C237.64 161.534 244.096 150.145 252.956 145.846C264.184 148.202 272.603 161.327 272.283 178.238C271.997 193.428 270.62 205.927 258.266 209.975C242.467 210.244 237.031 193.786 237.369 175.884Z" fill="black"/>
<path d="M216.095 146.35L222.524 154.001L210.733 151.747L202.044 143.454L194.456 127.533L183.471 120.511L156.157 123.701L130.925 124.181L121.773 115.738L132.184 114.522L142.703 114.482L169.123 114.383L200.565 114.14L206.693 131.469L211.369 143.391L216.095 146.35Z" fill="#1B529D"/>
<path d="M125.094 175.332C125.616 176.15 143.204 179.177 143.204 179.177L191.773 188.984L275.498 191.777L285.483 183.614L290.628 184.628L290.837 184.669L359.554 198.214L360.68 198.073L379.525 195.75L477.949 183.613L477.12 169.342L476.628 160.92L475.613 143.433L474.754 138.835L466.029 137.87L461.952 137.417L398.353 130.369L390.038 129.449L385.377 128.932L339.985 121.881L273.579 122.243L273.694 101.771L248.966 20.4921C243.16 21.3239 243.219 25.2323 243.219 25.2323L264.131 101.724L263.52 148.45C216.948 152.266 215.641 142.111 208.221 145.385L199.871 116.81L121.774 115.739C118.605 119.449 125.094 175.332 125.094 175.332Z" fill="#2B3250"/>
<path d="M319.639 136.58L293.86 189.295L285.461 191.828L283.606 183.175L293.453 153.864L303.335 136.945L319.639 136.58Z" fill="#65617D"/>
<path opacity="0.15" d="M319.639 136.58L293.86 189.295L285.461 191.828L283.606 183.175L293.453 153.864L303.335 136.945L319.639 136.58Z" fill="black"/>
<path d="M379.522 196.299C380.053 168.192 360.396 145.027 335.616 144.559C310.837 144.091 290.319 166.497 289.788 194.605C289.258 222.713 308.915 245.878 333.694 246.346C358.474 246.814 378.991 224.407 379.522 196.299Z" fill="#636780"/>
<path opacity="0.1" d="M319.554 147.432C343.003 149.509 361.183 171.974 360.672 199.019C360.261 220.819 347.825 239.185 330.705 246.115C307.256 244.037 289.076 221.572 289.587 194.527C289.998 172.728 302.434 154.361 319.554 147.432Z" fill="black"/>
<path d="M456.602 108.729L458.626 119.24L464.818 151.444L494.091 149.168C494.091 149.168 495.942 143.817 491.404 141.711C491.404 141.711 490.245 123.454 484.953 117.612C484.386 116.947 483.669 116.426 482.861 116.094L456.602 108.729Z" fill="#65617D"/>
<path opacity="0.1" d="M458.627 119.24L464.819 151.444L494.092 149.168C494.092 149.168 495.942 143.817 491.404 141.711C491.404 141.711 490.246 123.454 484.954 117.612L458.627 119.24Z" fill="white"/>
<path d="M390.711 110.313C386.823 116.567 394.875 175.041 394.875 175.041L466.862 164.546L465.269 113.471C463.96 104.286 458.596 103.11 458.596 103.11C433.524 89.8396 375.411 86.047 375.411 86.047C322.326 87.0647 273.695 101.771 273.695 101.771C334.187 93.6204 390.711 110.313 390.711 110.313Z" fill="#3C4165"/>
<path opacity="0.1" d="M394.875 175.041L466.862 164.546L465.269 113.471C463.96 104.286 458.596 103.11 458.596 103.11C458.596 103.11 406.314 97.1363 390.711 110.313C386.823 116.567 394.875 175.041 394.875 175.041Z" fill="black"/>
<path d="M402.524 171.817L462.719 162.84L461.403 119.263C460.312 111.427 455.827 110.426 455.827 110.426C455.827 110.426 412.114 105.346 399.064 116.593C395.811 121.93 402.524 171.817 402.524 171.817Z" fill="#65617D"/>
<path opacity="0.1" d="M416.351 136.252C416.506 127.998 412.956 121.237 408.42 121.152C403.884 121.066 400.08 127.688 399.925 135.942C399.769 144.195 403.319 150.956 407.855 151.042C412.391 151.127 416.195 144.506 416.351 136.252Z" fill="black"/>
<path d="M416.358 135.848C416.514 127.594 412.963 120.833 408.427 120.748C403.891 120.662 400.088 127.284 399.932 135.537C399.776 143.791 403.327 150.552 407.863 150.638C412.399 150.723 416.202 144.102 416.358 135.848Z" fill="#DCE0ED"/>
<path d="M407.277 124.632C407.277 124.632 410.632 125.234 408.798 129.644C407.829 131.786 407.108 134.032 406.652 136.338C406.652 136.338 403.253 138.025 403.496 132.238C403.74 126.451 407.277 124.632 407.277 124.632Z" fill="#F0F0F4"/>
<path opacity="0.1" d="M459.951 131.149C460.096 123.436 456.778 117.119 452.54 117.039C448.302 116.959 444.747 123.146 444.602 130.859C444.456 138.571 447.774 144.889 452.012 144.969C456.251 145.049 459.805 138.861 459.951 131.149Z" fill="black"/>
<path d="M459.958 130.745C460.104 123.032 456.786 116.715 452.547 116.635C448.309 116.555 444.755 122.742 444.609 130.455C444.463 138.168 447.781 144.485 452.02 144.565C456.258 144.645 459.812 138.458 459.958 130.745Z" fill="#DCE0ED"/>
<path d="M451.415 119.539C451.415 119.539 454.771 120.141 452.937 124.551C451.967 126.693 451.247 128.939 450.79 131.245C450.79 131.245 447.391 132.932 447.635 127.145C447.879 121.358 451.415 119.539 451.415 119.539Z" fill="#F0F0F4"/>
<path opacity="0.1" d="M417.803 123.617C418.235 129.149 420.157 170.129 420.157 170.129L424.739 169.451L427.288 169.079L430.683 168.578L431.093 168.517L444.468 166.547L442.654 123.08C442.596 121.684 442.002 120.364 440.997 119.394C439.991 118.423 438.651 117.877 437.254 117.867C437.12 117.869 436.983 117.87 436.845 117.88C435.923 117.943 434.927 118.021 433.891 118.115C433.454 118.155 433.013 118.195 432.563 118.243C431.28 118.372 429.956 118.533 428.655 118.723C427.991 118.823 427.338 118.928 426.694 119.041C425.603 119.239 424.548 119.458 423.574 119.71C422.912 119.879 422.282 120.065 421.704 120.268C419.281 121.095 417.688 122.189 417.803 123.617Z" fill="black"/>
<path d="M437.254 117.867L438.941 166.714L440.426 166.608L438.757 118.089C438.269 117.946 437.763 117.871 437.254 117.867Z" fill="#65617D"/>
<path d="M432.563 118.243L434.076 167.563L436.367 167.606L433.891 118.115C433.454 118.155 433.013 118.195 432.563 118.243Z" fill="#65617D"/>
<path d="M426.693 119.042L429.613 168.558L431.095 168.586L431.092 168.517L428.655 118.723C427.99 118.824 427.338 118.928 426.693 119.042Z" fill="#65617D"/>
<path d="M421.704 120.268L424.739 169.451L424.745 169.544L427.307 169.322L427.288 169.079L423.573 119.71C422.912 119.879 422.282 120.065 421.704 120.268Z" fill="#65617D"/>
<path opacity="0.1" d="M475.749 159.327C475.749 159.327 481.18 133.873 469.895 132.347C458.61 130.82 421.398 132.845 422.311 143.368C423.223 153.891 424.134 169.868 424.134 169.868L431.84 168.297C431.84 168.297 426.538 144.155 435.543 143.416C444.547 142.677 466.608 140.568 466.608 140.568C466.608 140.568 472.585 139.671 468.753 160.71L475.749 159.327Z" fill="black"/>
<path d="M475.703 161.751C475.703 161.751 481.164 134.681 469.879 133.155C458.595 131.628 421.383 133.653 422.295 144.176C423.208 154.699 424.118 170.676 424.118 170.676L431.825 169.105C431.825 169.105 426.523 144.963 435.527 144.224C444.532 143.485 466.593 141.376 466.593 141.376C466.593 141.376 472.539 142.094 468.707 163.134L475.703 161.751Z" fill="#DCE0ED"/>
<path d="M275.498 191.778L285.461 191.828C293.337 159.923 305.697 140.224 305.697 140.224C309.777 138.143 353.932 139.248 353.932 139.248C358.497 140.142 359.434 154.706 359.434 154.706C359.434 154.706 355.465 157.997 359.193 160.225C360.859 161.218 366.397 161.505 372.789 161.298C380.726 161.036 389.982 160.007 394.781 158.606C403.451 156.075 396.679 150.965 396.679 150.965C396.679 150.965 395.497 149.327 394.857 140.425C394.401 135.227 392.818 130.19 390.219 125.666C389.859 125.041 389.631 124.701 389.631 124.701C389.185 124.262 388.656 123.917 388.074 123.686C376.75 118.704 320.717 122.188 320.717 122.188L299.86 128.396C299.282 128.615 298.37 130.061 297.235 132.375C290.418 146.304 275.498 191.778 275.498 191.778Z" fill="#65617D"/>
<path opacity="0.1" d="M275.498 191.778L285.461 191.828C293.337 159.923 305.697 140.224 305.697 140.224C309.777 138.143 353.932 139.248 353.932 139.248C358.497 140.142 359.434 154.706 359.434 154.706C359.434 154.706 355.465 157.997 359.193 160.225C360.859 161.218 366.397 161.505 372.789 161.298C380.726 161.036 389.982 160.007 394.781 158.606C403.451 156.075 396.679 150.965 396.679 150.965C396.679 150.965 395.497 149.327 394.857 140.425C394.401 135.227 392.818 130.19 390.219 125.666C389.859 125.041 389.631 124.701 389.631 124.701C389.185 124.262 388.656 123.917 388.074 123.686C376.75 118.704 320.717 122.188 320.717 122.188L299.86 128.396C299.282 128.615 298.37 130.061 297.235 132.375C290.418 146.304 275.498 191.778 275.498 191.778Z" fill="black"/>
<path d="M297.235 132.375C316.517 125.3 369.19 130.243 369.19 130.243C374.883 125.558 385.427 125.442 390.219 125.666C389.859 125.041 389.631 124.701 389.631 124.701C389.185 124.262 388.656 123.917 388.074 123.686C376.75 118.704 320.717 122.188 320.717 122.188L299.86 128.396C299.282 128.615 298.369 130.061 297.235 132.375Z" fill="#65617D"/>
<path d="M366.054 132.204C367.187 136.399 371.852 153.191 371.852 153.191C372.32 155.873 372.633 158.58 372.79 161.298C380.726 161.036 389.983 160.007 394.781 158.606C403.451 156.075 396.679 150.965 396.679 150.965C396.679 150.965 395.498 149.326 394.858 140.425C394.37 134.847 392.58 129.461 389.631 124.701C389.186 124.262 388.656 123.916 388.074 123.686C380.556 125.31 365.197 129.028 366.054 132.204Z" fill="#65617D"/>
<path opacity="0.1" d="M366.054 132.204C367.187 136.399 371.852 153.191 371.852 153.191C372.32 155.873 372.633 158.58 372.79 161.298C380.726 161.036 389.983 160.007 394.781 158.606C403.451 156.075 396.679 150.965 396.679 150.965C396.679 150.965 395.498 149.326 394.858 140.425C394.37 134.847 392.58 129.461 389.631 124.701C389.186 124.262 388.656 123.916 388.074 123.686C380.556 125.31 365.197 129.028 366.054 132.204Z" fill="white"/>
<path d="M248.966 20.492L273.694 101.771L376.81 86.8492L363.186 38.0035C363.186 38.0035 361.073 26.852 355.737 25.9431C355.737 25.9431 273.306 10.042 248.966 20.492ZM260.443 33.2347C257.114 22.2622 306.104 27.7331 306.104 27.7331C312.7 27.2233 320.65 27.7775 328.039 28.6726C330.744 29.0025 333.372 29.3794 335.833 29.7654C341.324 30.6287 345.986 31.5491 348.775 32.1311C350.55 32.5 351.568 32.7334 351.568 32.7334C361.306 35.9477 366.097 76.4443 366.097 76.4443C366.824 80.7007 361.793 79.6965 361.793 79.6965L361.465 79.7024L356.877 79.7936L343.199 80.0726L276.503 81.4192C272.573 80.9409 272.054 76.2844 272.054 76.2844C269.997 72.9121 260.443 33.2347 260.443 33.2347H260.443Z" fill="white"/>
<path d="M361.466 79.7024L361.793 79.6965C361.793 79.6965 366.825 80.7007 366.097 76.4443C366.097 76.4443 361.306 35.9477 351.568 32.7334C351.568 32.7334 350.55 32.5 348.775 32.1311C352.203 39.1376 363.165 63.1155 361.466 79.7024Z" fill="#3C4765"/>
<path opacity="0.1" d="M361.466 79.7024L361.793 79.6965C361.793 79.6965 366.825 80.7007 366.097 76.4443C366.097 76.4443 361.306 35.9477 351.568 32.7334C351.568 32.7334 350.55 32.5 348.775 32.1311C352.203 39.1376 363.165 63.1155 361.466 79.7024Z" fill="#E6EBF1"/>
<path opacity="0.1" d="M350.536 179.154C351.101 180.253 351.967 181.17 353.034 181.794C354.1 182.419 355.323 182.727 356.559 182.682L358.616 182.632L378.044 182.162L385.046 181.991L391.519 181.576L477.12 169.342L476.628 160.92L466.787 162.14L462.716 162.645L402.301 170.127L394.351 171.112L390.495 171.589L374.203 171.164L356.567 170.701C355.675 170.676 354.787 170.829 353.956 171.153C352.43 171.727 351.185 172.867 350.478 174.336C350.108 175.087 349.92 175.915 349.93 176.752C349.94 177.589 350.148 178.412 350.536 179.154Z" fill="black"/>
<path d="M350.521 179.961C351.085 181.061 351.952 181.977 353.019 182.602C354.085 183.227 355.308 183.535 356.543 183.489L385.031 182.799L391.504 182.384L482.789 169.336L489.964 168.311L493.874 167.751C501.579 166.28 499.434 158.562 499.434 158.562C498.963 155.05 485.828 151.57 481.519 151.626C478.622 151.66 478.133 156.116 478.127 159.037C478.124 160.467 478.233 161.528 478.233 161.528L473.964 162.057L390.48 172.396L356.552 171.509C355.294 171.463 354.05 171.781 352.97 172.426C351.889 173.071 351.018 174.015 350.462 175.144C350.093 175.895 349.905 176.722 349.915 177.56C349.925 178.397 350.133 179.22 350.521 179.961Z" fill="#DCE0ED"/>
<path opacity="0.1" d="M487.62 156.589C487.62 156.589 483.9 160.963 478.233 161.529C478.233 161.529 480.616 156.591 487.62 156.589Z" fill="black"/>
<path opacity="0.1" d="M488.326 169.128C488.326 169.128 500.313 169.085 500.191 175.548C500.069 182.01 492.509 182.945 492.509 182.945L385.082 201.523L354.644 201.487C354.644 201.487 344.167 192.804 355.279 189.243L385.961 190.63L488.371 173.843C488.371 173.843 485.747 170.157 488.326 169.128Z" fill="black"/>
<path d="M354.629 202.295L385.066 202.332L480.587 185.812L487.575 184.603L492.493 183.754C492.493 183.754 500.054 182.818 500.176 176.355C500.264 171.718 494.11 170.43 490.63 170.074C489.263 169.935 488.309 169.937 488.309 169.937C485.732 170.963 488.357 174.649 488.357 174.649L484.628 175.262L385.946 191.439L355.264 190.052C344.154 193.612 354.629 202.295 354.629 202.295Z" fill="#DCE0ED"/>
<path d="M479.404 163.706L473.13 160.759L469.901 160.564L469.656 187.766L479.658 185.934L483.883 183.32L486.116 172.049C486.116 172.049 485.397 167.321 485.001 166.91C484.604 166.498 479.404 163.706 479.404 163.706Z" fill="#DCE0ED"/>
<path opacity="0.1" d="M479.404 163.706L473.13 160.759L469.901 160.564L469.656 187.766L479.658 185.934L483.883 183.32L486.116 172.049C486.116 172.049 485.397 167.321 485.001 166.91C484.604 166.498 479.404 163.706 479.404 163.706Z" fill="black"/>
<path opacity="0.1" d="M480.587 185.812C480.508 185.904 480.467 185.951 480.467 185.951L487.492 184.734C487.521 184.691 487.55 184.647 487.576 184.603C491.38 178.723 491.786 173.898 490.63 170.074C489.263 169.935 488.309 169.937 488.309 169.937C485.732 170.963 488.357 174.649 488.357 174.649L484.629 175.262C484.778 180.59 481.285 184.985 480.587 185.812Z" fill="black"/>
<path opacity="0.1" d="M470.707 160.578C471.882 161.057 472.968 161.55 473.964 162.058C478.451 164.324 481.204 166.825 482.789 169.336L489.964 168.312C486.984 161.807 479.631 158.726 479.631 158.726L478.127 159.037L470.707 160.578Z" fill="black"/>
<path d="M478.825 158.712C478.825 158.712 498.335 166.892 486.685 184.72L479.658 185.935C479.658 185.935 493.826 170.309 469.901 160.564L478.825 158.712Z" fill="#DCE0ED"/>
<path d="M431.805 166.579L424.54 166.172L425.199 195.412L436.954 193.479L441.981 191.149L444.38 185.403L446.104 179.644L442.299 174.32L437.912 171.273L431.805 166.579Z" fill="#DCE0ED"/>
<path opacity="0.1" d="M431.805 166.579L424.54 166.172L425.199 195.412L436.954 193.479L441.981 191.149L444.38 185.403L446.104 179.644L442.299 174.32L437.912 171.273L431.805 166.579Z" fill="black"/>
<path d="M435.829 181.74C435.891 178.468 434.374 175.786 432.44 175.75C430.507 175.713 428.89 178.336 428.828 181.607C428.766 184.879 430.283 187.561 432.217 187.598C434.15 187.634 435.767 185.012 435.829 181.74Z" fill="#DCE0ED"/>
<path d="M465.563 190.347C465.807 190.452 466.026 190.608 466.206 190.803C466.386 190.999 466.523 191.23 466.608 191.482C466.693 191.734 466.725 192.001 466.7 192.265C466.675 192.53 466.596 192.787 466.466 193.018C465.645 194.488 464.656 196.39 464.736 196.899C464.871 197.761 462.966 197.017 462.718 196.811C462.469 196.604 458.981 196.74 458.824 194.363C458.805 193.646 458.973 192.937 459.313 192.305C459.653 191.674 460.152 191.142 460.761 190.763L460.051 185.548L464.855 185.234L464.715 189.979L465.563 190.347Z" fill="#636780"/>
<path opacity="0.1" d="M465.563 190.347C465.807 190.452 466.026 190.608 466.206 190.803C466.386 190.999 466.523 191.23 466.608 191.482C466.693 191.734 466.725 192.001 466.7 192.265C466.675 192.53 466.596 192.787 466.466 193.018C465.645 194.488 464.656 196.39 464.736 196.899C464.871 197.761 462.966 197.017 462.718 196.811C462.469 196.604 458.981 196.74 458.824 194.363C458.805 193.646 458.973 192.937 459.313 192.305C459.653 191.674 460.152 191.142 460.761 190.763L460.051 185.548L464.855 185.234L464.715 189.979L465.563 190.347Z" fill="black"/>
<path opacity="0.1" d="M464.256 190.223C464.256 190.223 462.536 195.746 463.239 195.962C463.942 196.177 464.256 190.223 464.256 190.223Z" fill="black"/>
<path opacity="0.1" d="M462.463 188.876C462.463 188.876 460.743 194.399 461.446 194.615C462.149 194.83 462.463 188.876 462.463 188.876Z" fill="black"/>
<path d="M443.424 171.78L445.802 188.529C445.802 188.529 449.143 188.136 450.989 187.775C451.393 187.727 451.787 187.613 452.155 187.437C452.249 187.346 452.447 187.358 452.709 187.415L452.713 187.415C453.606 187.614 455.191 188.387 455.514 187.767C455.538 187.719 455.569 187.675 455.606 187.635L455.61 187.631C455.931 187.294 456.54 187.556 457.133 187.656C457.449 187.742 457.787 187.703 458.076 187.549C458.579 187.227 459.575 187.779 460.395 187.972C460.914 188.095 461.363 188.08 461.578 187.615C461.66 187.464 461.777 187.335 461.919 187.238C462.06 187.141 462.223 187.079 462.393 187.057L462.397 187.057C463.176 186.877 464.26 187.031 464.888 186.91C465.136 186.866 465.307 186.776 465.367 186.608C465.495 186.246 466.193 186.086 466.939 185.959C467.843 185.802 468.815 185.695 468.894 185.329C468.917 185.208 469.007 185.157 469.14 185.156C469.64 185.24 470.132 185.371 470.607 185.547L470.611 185.547C471.013 185.656 471.349 185.666 471.451 185.377C471.562 185.06 472.026 185.105 472.553 185.244C472.979 185.357 473.448 185.532 473.81 185.624C474.136 185.703 474.37 185.719 474.413 185.566C474.557 185.032 476.283 186.276 476.707 185.206C477.131 184.135 482.788 177.106 475.826 167.681C475.826 167.681 473.893 167.778 472.413 168.017C471.922 168.074 471.441 168.199 470.984 168.39C470.976 168.389 470.972 168.393 470.964 168.397C470.116 168.617 469.239 168.702 468.365 168.647C467.863 168.644 467.367 168.752 466.912 168.963C466.733 169.057 466.589 169.206 466.5 169.388C466.264 169.897 465.745 169.992 465.181 169.949C464.418 169.89 463.575 169.583 463.261 169.731C463.252 169.735 463.243 169.739 463.233 169.742C462.663 169.974 460.555 169.7 460.189 170.044C460.178 170.054 460.168 170.065 460.16 170.076C460.002 170.3 459.178 170.046 458.336 169.917L458.332 169.916C458.052 169.834 457.758 169.811 457.469 169.851C457.18 169.891 456.902 169.992 456.655 170.147C456.279 170.435 455.805 170.565 455.335 170.51C454.764 170.458 454.189 170.47 453.621 170.547C453.489 170.58 453.369 170.652 453.278 170.754C452.927 171.172 452.108 171.1 451.376 171.122C451.001 171.1 450.627 171.187 450.3 171.373C450.183 171.453 450.05 171.505 449.91 171.527C448.823 171.606 447.731 171.531 446.665 171.304L443.424 171.78Z" fill="#636780"/>
<path opacity="0.1" d="M472.552 185.244C472.978 185.357 473.448 185.532 473.81 185.623C479.439 177.244 474.956 170.715 472.413 168.016C471.921 168.074 471.44 168.199 470.984 168.389C476.353 174.83 473.655 182.699 472.552 185.244Z" fill="black"/>
<path opacity="0.1" d="M469.14 185.156C469.64 185.24 470.131 185.371 470.607 185.547L470.611 185.547C475.449 177.359 470.751 171.08 468.364 168.647C467.863 168.644 467.367 168.752 466.912 168.963C472.043 174.79 470.353 181.885 469.14 185.156Z" fill="black"/>
<path opacity="0.1" d="M464.889 186.91C465.136 186.866 465.307 186.776 465.367 186.608C465.495 186.246 466.193 186.086 466.939 185.959C471.184 178.539 467.621 172.714 465.181 169.949C464.418 169.89 463.575 169.583 463.261 169.731C463.252 169.735 463.243 169.739 463.233 169.742C468.902 176.347 465.952 184.513 464.889 186.91Z" fill="black"/>
<path opacity="0.1" d="M460.396 187.972C460.915 188.095 461.363 188.08 461.578 187.615C461.661 187.464 461.777 187.336 461.919 187.239C462.06 187.142 462.223 187.079 462.393 187.057L462.397 187.057C467.345 178.798 462.58 172.465 460.189 170.044C460.178 170.054 460.168 170.065 460.16 170.076C460.002 170.3 459.179 170.046 458.337 169.917C465.009 176.912 461.339 185.966 460.396 187.972Z" fill="black"/>
<path opacity="0.1" d="M455.61 187.631C455.931 187.294 456.54 187.556 457.133 187.656C462.277 179.462 457.811 173.115 455.335 170.51C454.764 170.457 454.189 170.47 453.621 170.547C459.327 176.925 456.773 184.865 455.61 187.631Z" fill="black"/>
<path opacity="0.1" d="M450.988 187.774C451.393 187.727 451.787 187.613 452.154 187.437C452.249 187.346 452.447 187.357 452.708 187.415L452.712 187.415C457.278 179.929 453.858 174.014 451.376 171.122C451 171.099 450.627 171.186 450.3 171.373C450.183 171.452 450.049 171.505 449.909 171.527C454.626 177.859 452.053 185.326 450.988 187.774Z" fill="black"/>
<path d="M342.183 198.019C342.52 180.173 332.968 165.52 320.848 165.291C308.727 165.062 298.628 179.344 298.291 197.19C297.954 215.036 307.506 229.689 319.627 229.918C331.748 230.147 341.846 215.865 342.183 198.019Z" fill="#636780"/>
<path opacity="0.1" d="M336.923 198.391C337.197 183.928 330.275 172.069 321.463 171.902C312.652 171.736 305.287 183.325 305.014 197.788C304.741 212.251 311.663 224.11 320.474 224.277C329.286 224.443 336.65 212.854 336.923 198.391Z" fill="black"/>
<path d="M336.939 197.583C337.212 183.121 330.29 171.261 321.479 171.095C312.667 170.928 305.302 182.518 305.029 196.981C304.756 211.444 311.678 223.303 320.489 223.469C329.301 223.636 336.666 212.046 336.939 197.583Z" fill="#F0F0F4"/>
<path d="M320.306 179.692C320.34 177.908 319.523 176.445 318.482 176.425C317.441 176.406 316.57 177.837 316.536 179.621C316.503 181.406 317.319 182.868 318.36 182.888C319.401 182.908 320.272 181.477 320.306 179.692Z" fill="#636780"/>
<path d="M312.232 207.824C312.266 206.04 311.449 204.577 310.408 204.557C309.367 204.538 308.496 205.968 308.462 207.753C308.429 209.538 309.245 211 310.286 211.02C311.327 211.04 312.199 209.609 312.232 207.824Z" fill="#636780"/>
<path d="M332.817 194.744C332.851 192.96 332.034 191.497 330.993 191.477C329.952 191.458 329.081 192.889 329.047 194.673C329.013 196.458 329.83 197.92 330.871 197.94C331.912 197.96 332.783 196.529 332.817 194.744Z" fill="#636780"/>
<path d="M326.941 213.49C326.975 211.705 326.158 210.242 325.117 210.223C324.076 210.203 323.205 211.634 323.171 213.418C323.137 215.203 323.954 216.666 324.995 216.685C326.036 216.705 326.907 215.274 326.941 213.49Z" fill="#636780"/>
<path d="M160.742 134.791C160.742 134.791 144.196 176.501 144.954 179.142C144.954 179.142 138.213 183.055 136.617 182.015C135.02 180.974 136.785 162.421 136.785 162.421L140.123 146.119L143.739 136.49L160.742 134.791Z" fill="#65617D"/>
<path opacity="0.15" d="M160.742 134.791C160.742 134.791 144.196 176.501 144.954 179.142C144.954 179.142 138.213 183.055 136.617 182.015C135.02 180.974 136.785 162.421 136.785 162.421L140.123 146.119L143.739 136.49L160.742 134.791Z" fill="black"/>
<path d="M309.87 190.271C309.904 188.486 309.087 187.023 308.046 187.004C307.005 186.984 306.134 188.415 306.1 190.199C306.067 191.984 306.883 193.447 307.924 193.466C308.965 193.486 309.837 192.055 309.87 190.271Z" fill="#636780"/>
<path d="M323.591 198.341C323.671 194.103 321.264 190.62 318.215 190.563C315.167 190.505 312.63 193.894 312.55 198.133C312.47 202.371 314.877 205.854 317.925 205.911C320.974 205.969 323.511 202.58 323.591 198.341Z" fill="#636780"/>
<path d="M142.111 190.604C141.652 214.919 149.312 237.207 171.775 235.207C200.061 235.135 202.643 216.071 203.103 191.756C203.562 167.44 190.25 149.087 173.408 148.769C156.566 148.45 142.57 166.288 142.111 190.604Z" fill="#636780"/>
<path opacity="0.1" d="M141.934 190.642C142.29 171.817 150.76 156.877 162.382 151.236C177.111 154.327 188.156 171.545 187.737 193.729C187.36 213.656 185.554 230.053 169.348 235.363C148.623 235.716 141.49 214.126 141.934 190.642Z" fill="black"/>
<path opacity="0.1" d="M130.39 180.079C130.39 180.079 134.364 183.588 136.632 181.207C136.632 181.207 142.909 137.687 149.779 137.615L173.412 137.859C173.412 137.859 176.216 139.124 177.329 144.398L191.788 188.176L275.513 190.97L282.16 177.693L212.885 176.586L212.877 176.554C212.527 175.206 201.735 133.658 194.053 128.37C194.049 128.365 194.045 128.365 194.041 128.361C193.781 128.178 193.497 128.033 193.196 127.929C193.196 127.929 164.389 123.546 154.847 125.993C154.847 125.993 144.909 128.027 142.429 131.011C142.421 131.018 142.414 131.026 142.408 131.035C142.078 131.368 138.25 135.518 136.861 147.674L130.39 180.079Z" fill="black"/>
<path d="M130.375 180.887C130.375 180.887 134.349 184.396 136.617 182.015C136.617 182.015 142.893 138.495 149.764 138.423L173.397 138.667C173.397 138.667 176.201 139.932 177.314 145.206L191.773 188.984L275.498 191.778L282.145 178.5L212.869 177.394L212.862 177.362C212.512 176.014 201.72 134.466 194.038 129.177C194.034 129.173 194.03 129.173 194.026 129.169C193.766 128.986 193.482 128.841 193.181 128.737C193.181 128.737 164.374 124.354 154.832 126.801C154.832 126.801 144.894 128.835 142.413 131.819C142.406 131.826 142.399 131.834 142.393 131.843C142.063 132.176 138.235 136.326 136.846 148.482L130.375 180.887Z" fill="#65617D"/>
<path opacity="0.1" d="M130.375 180.887C130.375 180.887 134.349 184.396 136.617 182.015C136.617 182.015 142.893 138.495 149.764 138.423L173.397 138.667C173.397 138.667 176.201 139.932 177.314 145.206L191.773 188.984L275.498 191.778L282.145 178.5L212.869 177.394L212.862 177.362C212.512 176.014 201.72 134.466 194.038 129.177C194.034 129.173 194.03 129.173 194.026 129.169C193.766 128.986 193.482 128.841 193.181 128.737C193.181 128.737 164.374 124.354 154.832 126.801C154.832 126.801 144.894 128.835 142.413 131.819C142.406 131.826 142.399 131.834 142.393 131.843C142.063 132.176 138.235 136.326 136.846 148.482L130.375 180.887Z" fill="black"/>
<path d="M182.573 134.193C184.52 138.069 200.996 185.655 200.996 185.655L212.869 177.394L212.862 177.362C212.512 176.013 201.709 134.422 194.026 129.169C188.952 129.938 181.249 131.562 182.573 134.193Z" fill="#65617D"/>
<path d="M205.6 113.011L214.505 144.292L264.011 143.813L263.52 148.45C263.52 148.45 224.637 153.373 208.221 145.385L199.871 116.809L121.773 115.738L136.717 112.518L205.6 113.011Z" fill="#D2DBE6"/>
<path opacity="0.1" d="M205.6 113.011L214.505 144.292L264.011 143.813L263.52 148.45C263.52 148.45 224.637 153.373 208.221 145.385L199.871 116.809L121.773 115.738L136.717 112.518L205.6 113.011Z" fill="#E6EBF1"/>
<path opacity="0.1" d="M436.658 166.401C436.658 166.401 462.93 180.231 443.036 192.381L437.762 193.494C437.762 193.494 457.277 179.99 425.348 166.187L436.658 166.401Z" fill="black"/>
<path d="M435.849 166.386C435.849 166.386 462.121 180.216 442.228 192.366L436.954 193.479C436.954 193.479 456.469 179.974 424.539 166.172L435.849 166.386Z" fill="#DCE0ED"/>
<path d="M175.571 194.67C175.835 180.728 169.448 169.301 161.305 169.147C153.163 168.993 146.349 180.171 146.086 194.113C145.822 208.056 152.209 219.483 160.352 219.637C168.494 219.79 175.308 208.613 175.571 194.67Z" fill="#636780"/>
<path opacity="0.1" d="M172.034 195.149C172.247 183.85 167.621 174.599 161.702 174.487C155.783 174.376 150.811 183.445 150.598 194.744C150.384 206.043 155.01 215.293 160.929 215.405C166.849 215.517 171.82 206.448 172.034 195.149Z" fill="black"/>
<path d="M172.049 194.341C172.262 183.042 167.637 173.791 161.717 173.68C155.798 173.568 150.826 182.637 150.613 193.936C150.399 205.235 155.025 214.485 160.945 214.597C166.864 214.709 171.836 205.64 172.049 194.341Z" fill="#F0F0F4"/>
<path d="M160.912 180.399C160.938 179.005 160.393 177.864 159.693 177.85C158.994 177.837 158.406 178.957 158.379 180.351C158.353 181.745 158.899 182.886 159.598 182.899C160.297 182.913 160.885 181.793 160.912 180.399Z" fill="#636780"/>
<path d="M155.43 202.392C155.456 200.998 154.91 199.857 154.211 199.844C153.512 199.83 152.923 200.95 152.897 202.344C152.871 203.738 153.416 204.879 154.116 204.893C154.815 204.906 155.403 203.786 155.43 202.392Z" fill="#636780"/>
<path d="M169.286 192.131C169.312 190.737 168.767 189.596 168.067 189.583C167.368 189.57 166.78 190.689 166.753 192.084C166.727 193.478 167.273 194.619 167.972 194.632C168.671 194.645 169.26 193.526 169.286 192.131Z" fill="#636780"/>
<path d="M165.299 206.787C165.326 205.393 164.78 204.252 164.081 204.239C163.381 204.226 162.793 205.345 162.767 206.74C162.74 208.134 163.286 209.275 163.985 209.288C164.685 209.301 165.273 208.182 165.299 206.787Z" fill="#636780"/>
<path d="M153.879 188.684C153.905 187.289 153.36 186.148 152.66 186.135C151.961 186.122 151.373 187.242 151.346 188.636C151.32 190.03 151.866 191.171 152.565 191.184C153.264 191.197 153.853 190.078 153.879 188.684Z" fill="#636780"/>
<path d="M163.08 194.96C163.142 191.649 161.533 188.933 159.485 188.895C157.437 188.856 155.726 191.509 155.663 194.82C155.601 198.132 157.21 200.847 159.258 200.886C161.306 200.925 163.017 198.272 163.08 194.96Z" fill="#636780"/>
<path opacity="0.1" d="M377.025 86.1462C377.025 86.1462 332.16 86.9151 273.695 101.771L377.025 86.1462Z" fill="black"/>
<path d="M164.592 3.61731C164.592 3.61731 167.019 4.05282 165.692 7.24254C164.991 8.79161 164.47 10.4161 164.14 12.0841C164.14 12.0841 161.681 13.3041 161.858 9.11846C162.034 4.93284 164.592 3.61731 164.592 3.61731Z" fill="#DCE0ED"/>
<path d="M258.947 80.3745L262.52 94.5993L274.833 83.8106" stroke="black" stroke-miterlimit="10"/>
<path d="M280.217 97.1322L243.816 90.8845L237.676 126.658L274.077 132.906L280.217 97.1322Z" fill="white"/>
<path d="M254.37 127.801L255.054 123.812C252.919 123.438 250.93 122.477 249.31 121.036L250.712 118.553C252.383 119.972 254.4 120.922 256.559 121.305C259.363 121.786 261.537 120.492 261.923 118.241C262.296 116.068 260.986 114.461 258.266 112.774C254.509 110.503 252.783 108.336 253.373 104.9C253.936 101.622 256.468 99.4949 260.203 99.526L260.888 95.5369L262.886 95.8798L262.228 99.7109C264.028 100.034 265.714 100.814 267.126 101.975L265.691 104.412C264.428 103.265 262.856 102.515 261.17 102.254C258.129 101.732 257.122 103.429 256.851 105.009C256.499 107.063 257.333 108.264 260.525 110.275C264.309 112.632 266.461 115.116 265.857 118.631C265.322 121.751 262.648 124.302 258.464 124.275L257.759 128.383L254.37 127.801Z" fill="#636780"/>
<path d="M253.75 257.433C254.065 257.422 254.364 257.289 254.583 257.063C254.802 256.836 254.924 256.533 254.924 256.218C254.924 255.903 254.802 255.6 254.583 255.373C254.364 255.147 254.065 255.014 253.75 255.003C253.435 255.014 253.137 255.147 252.918 255.373C252.699 255.6 252.577 255.903 252.577 256.218C252.577 256.533 252.699 256.836 252.918 257.063C253.137 257.289 253.435 257.422 253.75 257.433Z" fill="#65617D"/>
</g>
<path opacity="0.1" d="M538.024 368.557C546.383 368.557 553.159 367.411 553.159 365.998C553.159 364.585 546.383 363.439 538.024 363.439C529.665 363.439 522.889 364.585 522.889 365.998C522.889 367.411 529.665 368.557 538.024 368.557Z" fill="#1B529D"/>
<path d="M527.859 354.109C527.859 354.109 536.493 353.843 539.095 351.99C541.697 350.137 552.375 347.925 553.021 350.897C553.666 353.868 565.995 365.675 556.248 365.754C546.501 365.833 533.6 364.236 531.003 362.654C528.406 361.072 527.859 354.109 527.859 354.109Z" fill="#A8A8A8"/>
<path opacity="0.2" d="M556.422 364.72C546.675 364.798 533.774 363.201 531.177 361.619C529.199 360.415 528.411 356.092 528.148 354.098C527.965 354.106 527.859 354.109 527.859 354.109C527.859 354.109 528.406 361.072 531.003 362.654C533.6 364.236 546.501 365.833 556.248 365.754C559.062 365.731 560.034 364.73 559.98 363.248C559.589 364.143 558.516 364.703 556.422 364.72Z" fill="black"/>
<path opacity="0.1" d="M625.812 338.154C632.244 338.154 637.459 337.273 637.459 336.185C637.459 335.098 632.244 334.217 625.812 334.217C619.38 334.217 614.165 335.098 614.165 336.185C614.165 337.273 619.38 338.154 625.812 338.154Z" fill="#1B529D"/>
<path d="M617.99 327.037C617.99 327.037 624.633 326.832 626.635 325.406C628.638 323.981 636.855 322.278 637.351 324.565C637.848 326.851 647.335 335.937 639.835 335.998C632.334 336.058 622.407 334.829 620.409 333.612C618.411 332.395 617.99 327.037 617.99 327.037Z" fill="#A8A8A8"/>
<path opacity="0.2" d="M639.969 335.202C632.468 335.262 622.541 334.033 620.543 332.816C619.021 331.889 618.414 328.563 618.212 327.028C618.071 327.034 617.99 327.037 617.99 327.037C617.99 327.037 618.411 332.395 620.409 333.612C622.407 334.829 632.335 336.058 639.835 335.998C642 335.98 642.748 335.21 642.707 334.069C642.406 334.758 641.58 335.189 639.969 335.202Z" fill="black"/>
<path opacity="0.1" d="M572.968 465.357C588.323 465.357 600.772 463.253 600.772 460.657C600.772 458.061 588.323 455.957 572.968 455.957C557.612 455.957 545.164 458.061 545.164 460.657C545.164 463.253 557.612 465.357 572.968 465.357Z" fill="#1B529D"/>
<path d="M554.295 438.816C554.295 438.816 570.155 438.327 574.935 434.924C579.715 431.52 599.332 427.456 600.517 432.915C601.703 438.373 624.352 460.063 606.446 460.208C588.54 460.352 564.841 457.419 560.07 454.513C555.3 451.607 554.295 438.816 554.295 438.816Z" fill="#A8A8A8"/>
<path opacity="0.2" d="M606.766 458.308C588.86 458.453 565.161 455.519 560.39 452.613C556.757 450.4 555.309 442.459 554.825 438.796C554.489 438.81 554.295 438.816 554.295 438.816C554.295 438.816 555.3 451.607 560.07 454.513C564.841 457.419 588.54 460.353 606.446 460.208C611.615 460.167 613.4 458.328 613.302 455.604C612.584 457.25 610.613 458.277 606.766 458.308Z" fill="black"/>
<path d="M866.542 295.204C866.542 313.866 859.336 331.807 846.427 345.284C833.518 358.76 815.903 366.731 797.258 367.532C778.614 368.334 760.38 361.904 746.362 349.585C732.344 337.266 723.625 320.01 722.024 301.417C721.918 300.241 721.839 299.065 721.804 297.872V297.81C721.769 296.942 721.752 296.073 721.752 295.204C721.758 276.008 729.388 257.6 742.964 244.029C756.54 230.457 774.95 222.833 794.147 222.833C813.343 222.833 831.753 230.457 845.329 244.029C858.905 257.6 866.535 276.008 866.542 295.204Z" fill="#65617D"/>
<path opacity="0.2" d="M866.542 295.204C866.542 313.866 859.336 331.807 846.427 345.284C833.518 358.76 815.903 366.731 797.258 367.532C778.614 368.334 760.38 361.904 746.362 349.585C732.344 337.266 723.625 320.01 722.024 301.417C721.918 300.241 721.839 299.065 721.804 297.872V297.81C721.769 296.942 721.752 296.073 721.752 295.204C721.758 276.008 729.388 257.6 742.964 244.029C756.54 230.457 774.95 222.833 794.147 222.833C813.343 222.833 831.753 230.457 845.329 244.029C858.905 257.6 866.535 276.008 866.542 295.204Z" fill="black"/>
<path d="M794.144 334.692C815.953 334.692 833.633 317.012 833.633 295.204C833.633 273.395 815.953 255.716 794.144 255.716C772.336 255.716 754.656 273.395 754.656 295.204C754.656 317.012 772.336 334.692 794.144 334.692Z" fill="#DCE0ED"/>
<path d="M794.144 318.897C807.229 318.897 817.837 308.289 817.837 295.204C817.837 282.119 807.229 271.511 794.144 271.511C781.059 271.511 770.451 282.119 770.451 295.204C770.451 308.289 781.059 318.897 794.144 318.897Z" fill="#65617D"/>
<path d="M480.057 295.204C480.058 313.866 472.852 331.807 459.943 345.284C447.033 358.76 429.419 366.731 410.774 367.532C392.13 368.334 373.896 361.904 359.878 349.585C345.859 337.266 337.14 320.01 335.539 301.417C335.434 300.241 335.355 299.065 335.32 297.872V297.81C335.285 296.942 335.267 296.073 335.267 295.204C335.274 276.008 342.904 257.6 356.48 244.029C370.056 230.457 388.466 222.833 407.662 222.833C426.858 222.833 445.269 230.457 458.845 244.029C472.421 257.6 480.051 276.008 480.057 295.204Z" fill="#65617D"/>
<path opacity="0.2" d="M480.057 295.204C480.058 313.866 472.852 331.807 459.943 345.284C447.033 358.76 429.419 366.731 410.774 367.532C392.13 368.334 373.896 361.904 359.878 349.585C345.859 337.266 337.14 320.01 335.539 301.417C335.434 300.241 335.355 299.065 335.32 297.872V297.81C335.285 296.942 335.267 296.073 335.267 295.204C335.274 276.008 342.904 257.6 356.48 244.029C370.056 230.457 388.466 222.833 407.662 222.833C426.858 222.833 445.269 230.457 458.845 244.029C472.421 257.6 480.051 276.008 480.057 295.204Z" fill="black"/>
<path d="M407.66 334.692C429.469 334.692 447.148 317.012 447.148 295.204C447.148 273.395 429.469 255.716 407.66 255.716C385.851 255.716 368.172 273.395 368.172 295.204C368.172 317.012 385.851 334.692 407.66 334.692Z" fill="#DCE0ED"/>
<path d="M407.66 318.897C420.745 318.897 431.353 308.289 431.353 295.204C431.353 282.119 420.745 271.511 407.66 271.511C394.575 271.511 383.967 282.119 383.967 295.204C383.967 308.289 394.575 318.897 407.66 318.897Z" fill="#65617D"/>
<path d="M889.122 281.638L864.967 280.588L842.912 239.629L765.195 233.328L727.386 282.688L729.487 296.341L724.236 308.944L477.432 311.045V304.743H475.331L473.231 295.291H492.135L478.482 280.588L430.171 239.629C430.171 239.629 347.203 241.73 346.153 239.629C345.103 237.529 350.879 215.999 350.879 215.999L386.587 205.497L508.413 196.045C535.194 153.51 559.35 133.556 559.35 133.556H872.318L887.022 209.172V209.351L889.122 281.638Z" fill="#3C4165"/>
<path d="M714.783 286.89C714.783 286.89 746.29 228.077 770.445 228.077H829.258C829.258 228.077 843.962 228.077 850.263 239.629L874.418 286.889H855.514C855.514 286.889 839.761 242.78 821.907 241.73C804.053 240.679 773.596 241.73 773.596 241.73C773.596 241.73 763.094 241.73 756.792 254.332C750.491 266.935 729.186 294.388 729.186 294.388C729.186 294.388 706.381 301.593 714.783 286.89Z" fill="#33323D"/>
<path d="M902.775 277.438H863.27L862.866 308.944L902.775 299.493V277.438Z" fill="#33323D"/>
<path d="M331.45 258.533C331.45 258.533 333.55 242.78 348.253 236.478L444.874 231.227C444.874 231.227 460.628 232.278 469.03 252.232L496.336 293.191V299.492H465.879C465.879 299.492 451.176 243.83 409.167 245.931H358.756C358.756 245.931 347.203 245.931 343.002 264.835L331.45 258.533Z" fill="#33323D"/>
<path d="M555.299 139.857H877.72C877.72 136.793 876.503 133.855 874.336 131.688C872.17 129.522 869.231 128.305 866.167 128.305H566.852C565.335 128.305 563.833 128.604 562.431 129.184C561.029 129.765 559.756 130.616 558.683 131.688C557.61 132.761 556.759 134.035 556.179 135.436C555.598 136.838 555.299 138.34 555.299 139.857Z" fill="#33323D"/>
<path opacity="0.3" d="M627.395 201.821H538.175C537.17 201.821 536.18 201.57 535.297 201.09C534.414 200.611 533.664 199.919 533.117 199.076C532.569 198.233 532.241 197.267 532.161 196.265C532.082 195.263 532.254 194.257 532.662 193.339L546.78 161.573C548.959 156.673 552.511 152.509 557.008 149.586C561.505 146.664 566.753 145.109 572.116 145.109H626.324C627.321 145.109 628.308 145.305 629.229 145.686C630.15 146.068 630.987 146.627 631.692 147.332C632.397 148.037 632.956 148.874 633.338 149.795C633.719 150.716 633.916 151.703 633.916 152.7V195.3C633.916 196.157 633.747 197.005 633.419 197.796C633.092 198.587 632.611 199.306 632.006 199.911C631.4 200.517 630.682 200.997 629.89 201.325C629.099 201.652 628.251 201.821 627.395 201.821Z" fill="white"/>
<path opacity="0.3" d="M739.7 145.109H661.509C659.03 145.109 657.02 147.118 657.02 149.598V197.332C657.02 199.811 659.03 201.821 661.509 201.821H739.7C742.18 201.821 744.189 199.811 744.189 197.332V149.598C744.189 147.118 742.18 145.109 739.7 145.109Z" fill="white"/>
<path d="M887.022 209.172V209.351L751.541 211.273L748.013 133.556H872.318L887.022 209.172Z" fill="#33323D"/>
<path opacity="0.3" d="M858.377 145.109H767.583C765.104 145.109 763.094 147.118 763.094 149.598V197.332C763.094 199.811 765.104 201.821 767.583 201.821H858.377C860.856 201.821 862.866 199.811 862.866 197.332V149.598C862.866 147.118 860.856 145.109 858.377 145.109Z" fill="white"/>
<path d="M638.792 221.775H608.037C607.249 221.775 606.61 222.414 606.61 223.201V226.65C606.61 227.438 607.249 228.077 608.037 228.077H638.792C639.579 228.077 640.218 227.438 640.218 226.65V223.201C640.218 222.414 639.579 221.775 638.792 221.775Z" fill="#DCE0ED"/>
<path d="M735.412 221.775H704.657C703.869 221.775 703.231 222.414 703.231 223.201V226.65C703.231 227.438 703.869 228.077 704.657 228.077H735.412C736.199 228.077 736.838 227.438 736.838 226.65V223.201C736.838 222.414 736.199 221.775 735.412 221.775Z" fill="#DCE0ED"/>
<path d="M810.177 138.837H771.287V177.057H810.177V138.837Z" fill="white"/>
<path d="M788.815 175.27V171.007C786.533 171 784.297 170.357 782.359 169.151L783.372 166.323C785.358 167.498 787.622 168.125 789.93 168.138C792.926 168.138 794.952 166.408 794.952 164.002C794.952 161.681 793.306 160.247 790.183 158.981C785.879 157.293 783.702 155.352 783.702 151.68C783.702 148.178 785.951 145.519 789.833 144.886V140.624H791.968V144.717C793.893 144.733 795.781 145.241 797.454 146.194L796.399 148.979C794.884 148.014 793.118 147.515 791.322 147.545C788.073 147.545 787.331 149.486 787.331 151.174C787.331 153.368 788.411 154.465 792.082 155.985C796.428 157.757 799.104 159.951 799.104 163.707C799.104 167.041 796.783 170.164 792.437 170.881V175.27L788.815 175.27Z" fill="#636780"/>
<path d="M343.541 376.851C343.542 388.08 339.205 398.876 331.438 406.986C323.67 415.095 313.07 419.892 301.851 420.374C290.632 420.856 279.66 416.987 271.225 409.574C262.789 402.161 257.543 391.777 256.58 380.589C256.516 379.882 256.469 379.174 256.448 378.456V378.419C256.427 377.896 256.416 377.374 256.416 376.851C256.431 365.307 261.027 354.241 269.195 346.084C277.363 337.927 288.435 333.345 299.978 333.345C311.522 333.345 322.594 337.927 330.762 346.084C338.93 354.241 343.526 365.307 343.541 376.851Z" fill="#65617D"/>
<path d="M299.977 400.613C313.1 400.613 323.738 389.974 323.738 376.851C323.738 363.728 313.1 353.09 299.977 353.09C286.854 353.09 276.216 363.728 276.216 376.851C276.216 389.974 286.854 400.613 299.977 400.613Z" fill="#DCE0ED"/>
<path d="M299.977 391.108C307.851 391.108 314.234 384.725 314.234 376.851C314.234 368.978 307.851 362.595 299.977 362.595C292.103 362.595 285.72 368.978 285.72 376.851C285.72 384.725 292.103 391.108 299.977 391.108Z" fill="#65617D"/>
<path d="M185.575 294.125L80.6769 296.237V280.75C81.6168 268.304 94.3793 263.937 106.028 262.57C115.11 261.539 124.305 262.228 133.131 264.603C155.388 270.495 169.581 271.636 176.551 271.747C178.085 271.77 179.563 272.322 180.737 273.309C181.91 274.296 182.707 275.658 182.993 277.164C183.326 278.933 183.653 280.861 183.96 282.762C184.192 284.251 184.414 285.719 184.614 287.086C185.19 291.052 185.575 294.125 185.575 294.125Z" fill="#65617D"/>
<path d="M269.263 379.665H51.3501C49.6677 379.683 48.0172 379.205 46.6042 378.291C45.1912 377.378 44.0781 376.069 43.4033 374.528C41.7611 370.604 44.058 368.102 46.5081 366.634C51.5221 363.662 55.3229 359.012 57.2377 353.507C59.561 346.669 61.8315 335.902 62.7239 319.122C63.6427 301.765 69.9262 293.185 76.7167 289.029H76.722C85.4926 283.664 95.108 285.676 95.108 285.676L183.463 286.384C185.036 287.097 186.491 288.046 187.777 289.198C195.65 296.527 184.171 306.095 184.171 306.095C159.528 332.143 178.183 358.544 178.183 358.544H223.393C231.84 358.588 240.1 356.059 247.075 351.294C253.185 347.075 255.55 342.989 256.464 340.517C257.161 338.627 257.868 336.742 258.713 334.915C270.573 309.195 256.268 267.354 250.096 251.708C248.564 247.816 247.535 245.546 247.535 245.546L261.712 244.474L270.678 243.793L270.768 243.788C290.527 277.867 297.872 312.886 300.343 338.833C300.575 341.278 300.765 343.649 300.918 345.924C301.2 350.252 300.589 354.592 299.125 358.675C297.661 362.757 295.375 366.496 292.407 369.659C289.439 372.822 285.854 375.342 281.873 377.063C277.892 378.785 273.6 379.67 269.263 379.665Z" fill="#3C4165"/>
<path opacity="0.1" d="M184.615 287.086H80.6769V282.762H183.96C184.192 284.251 184.414 285.719 184.615 287.086Z" fill="black"/>
<path opacity="0.1" d="M187.777 289.198H77.5563C77.2695 289.2 76.9855 289.142 76.722 289.029C85.4926 283.664 95.108 285.676 95.108 285.676L183.463 286.383C185.036 287.097 186.491 288.046 187.777 289.198Z" fill="black"/>
<path d="M188.696 283.819H38.9922C37.7986 283.819 36.8309 284.787 36.8309 285.981C36.8309 287.174 37.7986 288.142 38.9922 288.142H188.696C189.89 288.142 190.857 287.174 190.857 285.981C190.857 284.787 189.89 283.819 188.696 283.819Z" fill="#DCE0ED"/>
<path opacity="0.1" d="M300.343 338.833C295.321 344.293 291.625 346.442 291.799 340.681C292.327 323.256 261.712 244.474 261.712 244.474L270.768 243.788C290.527 277.867 297.872 312.885 300.343 338.833Z" fill="black"/>
<path opacity="0.1" d="M343.277 372.078C338.076 373.324 331.644 374.592 323.713 375.753C320.767 376.186 317.606 376.602 314.23 376.999C306.135 377.96 296.773 378.8 285.959 379.444C282.897 379.629 279.716 379.796 276.418 379.946C270.24 380.226 263.627 380.44 256.579 380.59L256.447 378.457V378.42C266.295 374.444 281.788 363.836 284.285 336.204C290.509 333.806 297.2 332.868 303.843 333.463C310.486 334.057 316.904 336.169 322.603 339.634C328.301 343.1 333.129 347.827 336.713 353.452C340.297 359.077 342.543 365.449 343.277 372.078Z" fill="black"/>
<path d="M248.237 379.666C248.237 379.666 298.241 374.249 281.028 298.05C281.028 298.05 305.737 320.699 321.105 333.289C336.473 345.879 363.865 363.234 363.865 363.234C363.865 363.234 347.507 378.522 248.237 379.666Z" fill="#33323D"/>
<path opacity="0.1" d="M248.237 379.666C248.237 379.666 298.241 374.249 281.028 298.05C281.028 298.05 305.737 320.699 321.105 333.289C336.473 345.879 363.865 363.234 363.865 363.234C363.865 363.234 347.507 378.522 248.237 379.666Z" fill="white"/>
<path d="M114.645 420.414C138.704 420.414 158.208 400.91 158.208 376.851C158.208 352.792 138.704 333.289 114.645 333.289C90.5862 333.289 71.0827 352.792 71.0827 376.851C71.0827 400.91 90.5862 420.414 114.645 420.414Z" fill="#65617D"/>
<path d="M114.645 400.613C127.768 400.613 138.407 389.974 138.407 376.851C138.407 363.728 127.768 353.09 114.645 353.09C101.522 353.09 90.8838 363.728 90.8838 376.851C90.8838 389.974 101.522 400.613 114.645 400.613Z" fill="#DCE0ED"/>
<path d="M114.645 391.108C122.519 391.108 128.902 384.725 128.902 376.851C128.902 368.978 122.519 362.595 114.645 362.595C106.771 362.595 100.388 368.978 100.388 376.851C100.388 384.725 106.771 391.108 114.645 391.108Z" fill="#65617D"/>
<path opacity="0.1" d="M163.488 363.769C163.488 335.637 141.148 312.831 113.589 312.831C86.0307 312.831 63.6902 335.637 63.6902 363.769C63.6902 364.956 63.7334 366.132 63.8116 367.299H163.367C163.445 366.132 163.488 364.956 163.488 363.769Z" fill="black"/>
<path d="M161.64 362.891C161.64 335.8 140.127 313.839 113.589 313.839C87.0513 313.839 65.5383 335.8 65.5383 362.891C65.5383 364.034 65.5798 365.167 65.6552 366.29H161.523C161.598 365.167 161.64 364.034 161.64 362.891Z" fill="#474750"/>
<path opacity="0.1" d="M161.64 362.89C161.64 363.677 161.619 364.458 161.582 365.234C161.566 365.588 161.545 365.937 161.524 366.29H65.6545C65.6334 365.937 65.6122 365.588 65.5964 365.234C65.5594 364.458 65.5383 363.677 65.5383 362.89C65.5383 335.802 87.0502 313.841 113.589 313.841C140.128 313.841 161.64 335.802 161.64 362.89Z" fill="white"/>
<path opacity="0.1" d="M161.582 365.235C161.566 365.589 161.545 365.937 161.524 366.291H65.6544C65.6334 365.937 65.6122 365.589 65.5964 365.235H161.582Z" fill="black"/>
<path opacity="0.1" d="M291.755 292.808C294.937 291.369 294.579 283.705 290.954 275.691C287.33 267.676 281.812 262.346 278.63 263.785C275.448 265.224 275.806 272.887 279.43 280.902C283.055 288.917 288.572 294.247 291.755 292.808Z" fill="black"/>
<path d="M292.283 292.28C295.465 290.841 295.107 283.177 291.483 275.163C287.858 267.148 282.341 261.818 279.158 263.257C275.976 264.696 276.334 272.359 279.959 280.374C283.583 288.388 289.101 293.719 292.283 292.28Z" fill="#DCE0ED"/>
<path opacity="0.1" d="M270.678 243.793V252.067H254.573C253.073 252.069 251.576 251.949 250.095 251.708C248.564 247.817 247.534 245.546 247.534 245.546L261.712 244.474L270.678 243.793Z" fill="black"/>
<path d="M270.678 251.01H254.573C240.43 251.01 228.964 240.428 228.964 227.374V225.181C228.964 212.127 240.43 201.545 254.573 201.545L270.678 203.007V251.01Z" fill="#4A5376"/>
<path d="M244.145 215.538C244.145 215.538 253.781 220.686 248.237 229.399C248.237 229.399 241.439 240.553 230.746 239.497L226.852 215.538C226.852 215.538 239.656 214.35 244.145 215.538Z" fill="#3C4165"/>
<path opacity="0.1" d="M240.446 215.072C241.975 215.132 243.472 215.534 244.826 216.249C246.18 216.963 247.357 217.972 248.27 219.201C249.986 221.577 251.009 225.042 248.237 229.399C248.237 229.399 241.439 240.553 230.746 239.497L226.852 215.538C231.37 215.124 235.909 214.969 240.446 215.072Z" fill="black"/>
<path opacity="0.1" d="M270.15 203.007C271.849 203.007 273.531 203.342 275.101 203.992C276.67 204.642 278.096 205.595 279.298 206.796C280.499 207.998 281.452 209.424 282.102 210.993C282.752 212.563 283.087 214.245 283.087 215.944V238.074C283.087 241.505 281.724 244.795 279.298 247.221C276.871 249.647 273.581 251.01 270.15 251.01V203.007Z" fill="black"/>
<path d="M270.678 203.007C274.109 203.007 277.399 204.37 279.825 206.796C282.252 209.223 283.615 212.513 283.615 215.944V238.074C283.615 241.505 282.252 244.795 279.825 247.221C277.399 249.647 274.109 251.01 270.678 251.01V203.007Z" fill="#DCE0ED"/>
<path d="M225.736 241.015C231.646 241.015 236.436 235.188 236.436 227.999C236.436 220.81 231.646 214.982 225.736 214.982C219.827 214.982 215.037 220.81 215.037 227.999C215.037 235.188 219.827 241.015 225.736 241.015Z" fill="#6C6F8C"/>
<path d="M111.796 288.172L116.471 298.582L124.284 288.172" stroke="black" stroke-miterlimit="10"/>
<path d="M135.129 299.017H97.0067V336.482H135.129V299.017Z" fill="white"/>
<path d="M114.19 334.731V330.553C111.952 330.546 109.76 329.916 107.861 328.733L108.854 325.961C110.801 327.113 113.02 327.727 115.282 327.74C118.219 327.74 120.205 326.044 120.205 323.686C120.205 321.411 118.592 320.005 115.53 318.764C111.311 317.109 109.177 315.206 109.177 311.607C109.177 308.174 111.382 305.568 115.187 304.948V300.77H117.28V304.782C119.167 304.797 121.018 305.296 122.658 306.23L121.623 308.96C120.138 308.014 118.408 307.525 116.647 307.554C113.462 307.554 112.734 309.456 112.734 311.111C112.734 313.262 113.793 314.338 117.392 315.827C121.652 317.564 124.275 319.715 124.275 323.397C124.275 326.664 122 329.726 117.74 330.429V334.731L114.19 334.731Z" fill="#636780"/>
<path d="M47.0027 199.98H41.3299V287.503H47.0027V199.98Z" fill="#DCE0ED"/>
<path d="M41.3299 199.98C41.3299 199.98 20.2598 200.791 16.2078 202.412C12.1559 204.032 0 203.222 0 203.222V225.913C0 225.913 13.7766 222.671 21.0702 225.103C28.3637 227.534 43.7611 221.861 43.7611 221.861L41.3299 199.98Z" fill="#DCE0ED"/>
</g>
<defs>
<clipPath id="clip0_42_121">
<rect width="902.775" height="481" fill="white"/>
</clipPath>
</defs>
</svg>
